<svg id="eswmPakG4bX1" xmlns="http://www.w3.org/2000/svg" xmlns:xlink="http://www.w3.org/1999/xlink" viewBox="0 0 650 400" shape-rendering="geometricPrecision" text-rendering="geometricPrecision" project-id="aae9e6aa27a941f18eedd634387bb8e8" export-id="4ec15f99cc5d49e08250dbdbd0ffabbf" cached="false"><g id="eswmPakG4bX352_to" transform="translate(325, 200)"><g transform="scale(0.702444,0.702444) translate(-50.671001,-48.689806)" opacity="0.5"><g id="eswmPakG4bX353_ts" transform="translate(53.3657,83.624145) rotate(12.261118) scale(1,1)"><g transform="translate(-53.3657,-83.624145)"><path d="M50.8977,81.3215c0,0-5.763,9.028-19.652,10.768s-26.86498.484-29.31998-4.067c-2.454-4.551-2.93898-8.408.78302-15.207c3.722-6.798,4.85101-14.142,13.11296-13.81s26.728,8.504,32.736,11.538c6.009,3.033,5.423,7.339,2.34,10.778Z" fill="#e7e1cf"/><path d="M42.3179,73.8364c-.383-.297-13.2251-11.366-16.3401-9.58-3.114,1.785-2.2019,2.668,3.0451,5.523c5.247,2.856,13.295,4.057,13.295,4.057Z" fill="#f9f5e8"/><path d="M9.74258,88.5585c-2.15-4.116-2.52699-7.628.95402-13.884s4.622-12.972,12.102-12.791c4.147.101,11.096,2.355,17.385,4.8-7.987-3.444-18.628-7.447-24.36-7.677-8.26202-.332-9.39103,7.012-13.11303,13.81s-3.237995,10.655-.784,15.207c2.053,3.808,11.47303,5.307,22.62803,4.677-7.523-.023-13.359-1.359-14.81202-4.142Z" fill="#d5cdb5"/><path d="M46.0107,77.4004c-7.876,9.551-12.757,13.769-19.35,12.828-6.592-.941-11.391.207-13.734-2.831s-1.827-6.815-.526-9.461c1.301-2.645,2.494-3.671,7.169-1.502c4.676,2.169,11.138,4.924,14.857,3.982c3.719-.941,11.584-3.016,11.584-3.016Z" fill="#f9f5e8"/><path d="M44.6416,76.3375c0,0-9.591,2.475-12.961,1.947s-13.365-4.111-13.327-5.648-.965-3.534,2.743-3.963c3.708-.428,9.217,5.242,11.642,5.384c2.425.143,11.903,2.28,11.903,2.28Z" fill="#f9f5e8"/><path d="M22.2737,63.4275c-1.569.823-3.11-.283-3.156.959-.047,1.243,1.835,1.595,1.591,2.429s.573,1.338,1.352.516s2.047-4.867.213-3.904Z" fill="#f9f5e8"/><path d="M16.9256,72.8974c-.83,1.156-2.903,1.939-3.323,1.016s.627-2.241.898-3.565.677-3.993,2.039-4.128c1.363-.135,1.219,5.518.386,6.677Z" fill="#f9f5e8"/><path d="M52.6967,85.7805c0,0,24.6419-46.179,4.3859-68.163-20.257-21.98396-32.244-20.53696-35.212-11.09596s6.28,14.56796,3.055,19.77696c-3.225,5.21-18.24996,13.638-14.722,23.991c3.528,10.354,42.4931,35.491,42.4931,35.491Z" fill="#e7e1cf"/><path d="M10.2039,50.2905c.743,2.18,3.0619,5.018,6.2529,8.137.664-.794.863-2.093.155-4.173-3.528-10.353,11.4971-18.782,14.7221-23.991c3.225-5.21-6.023-10.337-3.055-19.777c1.879-5.97597,7.373-8.74597,16.289-4.40097-4.371-3.222-8.146-5.039-11.313-5.741998-.003-.001-.0061-.000999-.0091-.001999-.571-.126-1.1219-.215999-1.6539-.271999-.005,0-.0101-.000999-.0151-.001999-.531-.055-1.043-.075-1.534-.062-.003,0-.006,0-.009,0-.244.007-.4839.020998-.7179.043998-.006,0-.011.000999-.016.001999-.464.046-.908.123-1.332.229-.017.004-.033.009001-.049.013001-.412.106-.805.239002-1.179.399002-.022.01-.045.018999-.067.028999-.365.16-.713.345006-1.042.554006-.025.016-.049.03099-.073.04699-.163.106-.3221.217-.4761.334-.002.002-.0049.004-.0069.006-.149.114-.292.234-.432.359-.024.021-.048.042-.072.064-.14.127-.2761.259-.4081.396-.015.016-.0299.033-.0449.049-.119.127-.2351.258-.3471.393-.02.024-.0409.048-.0609.073-.119.147-.234.298-.345.454-.02.028-.0391.057-.0591.086-.098.142-.193.287-.285.436-.016.025-.032.05-.047.075-.1.165-.1949.336-.2869.51-.02.038-.039.07601-.059.11401-.083.163-.1641.32899-.2401.49899-.008.019-.018.037-.026.056-.082.184-.1579.373-.2309.565-.017.045-.034.09-.051.136-.072.195-.1421.393-.2051.596-.371,1.18-.5509,2.293-.5889,3.347-.019.52697-.002,1.03897.045,1.53797.023.249.0539.495.0909.738.149.971.4051,1.889.7191,2.763.471,1.312,1.074,2.524,1.644,3.668.38.762.7469,1.494,1.0509,2.203.076.177.148.353.216.528.675,1.746.8851,3.366-.1229,4.994-3.228,5.206-18.25304,13.634-14.725,23.988Z" fill="#d5cdb5"/><path d="M53.3657,76.8854c0,0-20.758-43.247-26.09-38.493-5.333,4.754-9.015,11.361-4.615,17.971c4.4,6.609,17.972,18.757,22.817,20.017c4.844,1.26,7.888.505,7.888.505Z" fill="#f9f5e8"/><path d="M55.4965,70.8456c0,0-21.064-29.524-21.278-34.08-.232-4.915,5.308-6.622,4.781-11.39-.527-4.769,2.223-3.901,6.268-1.954s13.604,33.685,10.229,47.424Z" fill="#f9f5e8"/><path d="M59.5215,56.9846c0,0,7.165-25.865-2.145-35.234s-11.708-13.90697-14.664-10.182.805,6.329,4.612,8.962s10.205,20.307,9.839,24.33c-.365,4.021,2.358,12.124,2.358,12.124Z" fill="#f9f5e8"/><path d="M40.7257,6.65265c-3.435-.299-5.898-2.291-7.642.591s1.035,7.26795-.52,8.31095-.03,4.476,2.739,3.586s4.752-3.963,4.936-6.225c.185-2.263,2.403-6.09695.487-6.26295Z" fill="#f9f5e8"/><path d="M36.9307,20.7124c-1.968.151-3.671-.273-3.801.911s2.331,3.159,1.801,4.189c-.529,1.03-.096,2.204.758,1.827.855-.377,3.718-7.117,1.242-6.927Z" fill="#f9f5e8"/><path d="M40.5575,17.1856c-1.034.489-2.574,1.188-1.919,2.126.655.939,2.57,1.1051,3.497.6601.927-.444-.285-3.3981-1.578-2.7861Z" fill="#f9f5e8"/><path d="M32.0056,36.5775c-2.281,1.012-3.599-.158-2.983-1.353s3.355-2.062,3.51-3.148c.154-1.087.432-1.605,1.314-1.847.882-.243-.264,5.648-1.841,6.348Z" fill="#f9f5e8"/><path d="M48.2336,82.2035c0,0-8.111,5.282-16.829,8.154-11.54,3.801-21.85295,5.671-17.7949,1.888c3.809-3.55,8.1759-6.598,18.0769-11.707c7.978-4.117,13.826-7.766,16.904-7.58c2.744.166,4.34,3.392,4.634,4.517.285,1.091-2.071,2.972-4.991,4.728Z" fill="#e7e1cf"/><path d="M49.4737,79.1095c.035-.121,1.814-4.688-.276-3.89-2.25.859-2.446,1.253-2.186,2.462.254,1.177,2.462,1.428,2.462,1.428Z" fill="#f9f5e8"/><path d="M19.9075,91.1875c3.096-2.97,6.665-5.557,14.898-10.023c6.812-3.695,11.909-6.999,14.635-6.957c1.394.022,2.469.913,3.183,1.843-.73-1.331-2.096-2.974-4.032-3.091-3.078-.187-8.926,3.463-16.904,7.58-9.901,5.109-14.268,8.156-18.077,11.707-3.377,3.148,3.522,2.331,12.898-.373-5.553,1.374-8.791,1.415-6.601-.686Z" fill="#e7e1cf"/><path d="M48.7456,80.6016c-9.437,5.605-15.354,8.84-18.44,9.116-3.404.305-8.157,2.01-6.54-.015c1.58-1.978,5.82-4.753,9.135-6.632c3.066-1.737,4.559-2.417,5.256-1.459.672.924,1.745,2.01,4.127,1.202c2.214-.75,6.462-2.212,6.462-2.212Z" fill="#f9f5e8"/><path d="M48.8696,80.1676c0,0-5.224,1.745-6.321,1.679-1.144-.069-3.26-1.446-2.073-2.297c1.152-.827,2.128-1.831,4.047-2.164c1.8-.312.378,2.266,1.267,2.227.86-.038,3.08.555,3.08.555Z" fill="#f9f5e8"/><path d="M48.3305,74.8925c-1.104.392-1.012-.097-1.815.476-.821.587-.286.718-.925,1.121-.65.41-.643.635.216.216.838-.407,3.765-2.253,2.524-1.813Z" fill="#f9f5e8"/><path d="M39.5796,79.7645c-1.322.695-3.056,1.278-2.52.762.531-.51,2.12-1.308,3.272-2.044c1.118-.715,3.214-2.091,3.903-2.189.673-.095-3.374,2.798-4.655,3.471Z" fill="#f9f5e8"/></g></g><g id="eswmPakG4bX377_tr" transform="translate(43.2875,85.604808) rotate(0)"><g transform="translate(-43.2875,-85.604808)"><path d="M43.2875,85.8786c0,0,42.514-23.595,51.952-34.861c9.5145-11.356,6.5595-12.415-.048-8.846-7.089,3.829-8.451,7.311-12.963,9.407-4.749,2.205-16.301,5.049-24.101,11.227-8.121,6.433-14.84,23.073-14.84,23.073Z" fill="#e7e1cf"/><path d="M58.1267,62.8056c-1.683,1.333-3.349,3.181-4.92,5.255.995-.432,2.252-1.188,3.843-2.457c7.735-6.166,19.257-9.191,23.988-11.441c4.498-2.139,5.828-5.548,12.893-9.431c4.223-2.322,6.9673-2.763,5.949.118c1.1543-1.848,1.5773-3.066,1.4363-3.764v-.002c-.026-.127-.071-.237-.133-.33l-.001-.002c-.063-.094-.144-.171-.242-.232l-.002-.001c-.049-.03-.102-.056-.159-.079l-.004-.002c-.113-.044-.243-.072-.388-.086-.006,0-.011-.001-.017-.001-.142-.012-.299-.01-.4703.005-.01.001-.021.002-.031.003-.169.017-.352.046-.546.089-.014.003-.029.006-.044.009-.098.022-.199.047-.303.075-.002.001-.005.002-.005.002-.101.027-.205.058-.311.091-.018.006-.036.011-.054.017-.108.034-.219.071-.332.111-.013.005-.027.01-.04.015-.104.037-.211.077-.32.119-.02.008-.039.015-.059.023-.118.046-.238.095-.361.146-.022.009-.045.019-.067.029-.111.047-.224.096-.338.147-.019.009-.039.017-.058.026-.127.057-.257.117-.388.179-.029.013-.057.027-.086.041-.123.059-.247.119-.374.182-.014.007-.028.014-.042.021-.137.068-.276.139-.417.212-.033.017-.066.034-.1.052-.143.075-.288.151-.435.23-.859.464-1.639.928-2.353,1.387-.359.231-.701.461-1.029.689-.164.114-.324.228-.481.342-.628.455-1.199.902-1.728,1.338-.796.656-1.496,1.286-2.157,1.881-.442.398-.866.781-1.29,1.146-.106.091-.212.182-.319.271-1.069.896-2.171,1.686-3.606,2.352-4.746,2.203-16.299,5.047-24.099,11.225v0Z" fill="#e7e1cf"/><path d="M51.4005,80.4606c0,0,27.5241-24.529,22.4371-22.645-5.424,2.009-12.22,5.332-16.339,9.423-4.158,4.13-9.601,11.936-8.756,12.794.821.835,2.6579.428,2.6579.428Z" fill="#f9f5e8"/><path d="M57.2419,77.0025c0,0,16.469-17.063,19.823-19.377c3.527-2.433,6.156-2.717,9.313-4.994c3.087-2.226,3.126-1.545,2.742-.258-.377,1.269-20.052,17.298-31.878,24.629Z" fill="#f9f5e8"/><path d="M69.3517,69.6395c0,0,19.482-11.917,23.404-16.826c3.951-4.946,6.266-7.11,3.418-5.889-2.956,1.268-3.842,2.818-4.729,4.37-.879,1.538-11.112,10.196-13.998,12.111-2.955,1.963-8.095,6.234-8.095,6.234Z" fill="#f9f5e8"/><path d="M98.8304,44.6275c-.462-.542.307-1.68-1.832-.689-2.194,1.018-4.465,3.266-5.489,3.545-1.039.283-3.009,2.009-1.779,1.915c1.203-.091,3.622-1.223,5.103-2.181c1.463-.945,4.251-2.292,3.997-2.59Z" fill="#f9f5e8"/><path d="M89.0466,50.2866c-.55-.146-.6559-.526-1.4919,0-.842.53-1.6141,1.706-2.4541,2.13-.848.428-1.563,1.025-1.086.934.474-.091,5.715-2.883,5.032-3.064Z" fill="#f9f5e8"/><path d="M92.1647,49.1105c-.539.102-1.33.242-1.805.732s-.162.769.332.669c.49-.1,2.14-1.528,1.473-1.401Z" fill="#f9f5e8"/><path d="M76.5845,57.3305c-1.414.3-.908-.413.169-.955c1.066-.536,2.456-.7,3.289-1.215.827-.512,1.2729-.734,1.6759-.764.4-.028-4.1739,2.73-5.1339,2.934Z" fill="#f9f5e8"/></g></g><path d="M44.7717,90.8395c-10.21,4.868-19.057,7.618-19.761,6.141-.704-1.476,7.002-6.62,17.212-11.488s19.057-7.618,19.761-6.141c.704,1.476-7.002,6.62-17.212,11.488Z" fill="#d5cdb5"/><g><path d="M62.3856,82.4405c-1.878.896-3.972.425-4.676-1.052-.704-1.476.248-3.399,2.126-4.295s3.972-.425,4.676,1.052-.248,3.4-2.126,4.295Z" fill="#d5cdb5"/><path d="M62.5498,77.8895c0,0,7.548,2.535,9.714.624c2.165-1.911,3.33-1.213,1.708.295-1.621,1.508-7.112,1.916-9.212.447-2.1-1.47-3.167-.656-3.167-.656l-.124-1.599l1.081.889Z" fill="#d5cdb5"/><path d="M62.7647,78.6604c0,0,7.785-1.673,8.672-4.421.887-2.749,2.244-2.743,1.619-.618-.625,2.124-5.138,5.278-7.694,5.086s-3.058,1.052-3.058,1.052l-.923-1.312l1.384.213Z" fill="#d5cdb5"/></g></g></g></svg>